<?xml version="1.0" encoding="utf-8"?>
<!-- Generator: Adobe Illustrator 13.0.2, SVG Export Plug-In . SVG Version: 6.00 Build 14948)  -->
<svg version="1.2" baseProfile="tiny" xmlns="http://www.w3.org/2000/svg" xmlns:xlink="http://www.w3.org/1999/xlink"
	 x="0px" y="0px" viewBox="0 0 800 800" width="100%" height="100%" xml:space="preserve">
		<path fill="#39B7EA" d="M399.927,116.603c-166.979,0-288.914,151.594-288.914,288.917c0,137.313,135.124,275.871,283.421,275.871
			c148.296,0,294.125-138.01,294.125-286.588C688.559,246.23,566.899,116.603,399.927,116.603 M394.465,587.3
			c-124.245,0-181.089-89.46-181.089-181.075c0-91.621,76.32-187.991,187.984-187.991c111.686,0,184.835,82.551,184.835,177.339
			C586.194,490.353,518.704,587.3,394.465,587.3"/>
		<path fill="#39B7EA" d="M32.87,156.955l81.907-89.706l87.269,81.905c0,0-22.684,18.297-38.772,34.386
			c-16.089,16.089-39.721,55.81-39.721,55.81L32.87,156.955z"/>
		<path fill="#A6C738" d="M0.042,409.174l16.252-118.9l82.671,8.232c0,0-9.523,24.05-13.919,56.879
			c-4.396,32.829-2.446,63.049-2.446,63.049L0.042,409.174z"/>
		<path fill="#39B7EA" d="M114.777,628.41L53.264,518.309l46.684-19.883c0,0,7.199,24.843,23.834,53.488
			c16.632,28.641,36.683,51.338,36.683,51.338L114.777,628.41z"/>
		<path fill="#A6C738" d="M311.743,734.693l-112.841-50.109l14.354-29.949c0,0,20.003,16.393,49.935,30.586
			c29.929,14.187,59.303,21.536,59.303,21.536L311.743,734.693z"/>
		<path fill="#39B7EA" d="M533.658,708.28l-120.507,23.564l-3.649-21.35c0,0,25.833,1.196,58.322-5.309
			c32.467-6.495,60.421-18.153,60.421-18.153L533.658,708.28z"/>
		<path fill="#A6C738" d="M355.755,4.532L240.878,39.257l21.116,80.353c0,0,22.255-13.181,53.99-22.678
			c31.728-9.502,61.877-12.323,61.877-12.323L355.755,4.532z"/>
		<path fill="#39B7EA" d="M590.288,83.413L471.889,39.957l-12.303,49.226c0,0,25.668,3.212,56.574,15.132
			c30.89,11.935,56.459,28.173,56.459,28.173L590.288,83.413z"/>
		<path fill="#A6C738" d="M726.186,261.244l-67.21-103.57l-27.326,18.878c0,0,19.335,17.181,38.052,44.516
			c18.709,27.321,30.582,55.188,30.582,55.188L726.186,261.244z"/>
		<path fill="#39B7EA" d="M734.951,484.55l4.35-122.708l-21.657-0.25c0,0,5.233,25.327,3.916,58.425
			c-1.318,33.093-8.441,62.531-8.441,62.531L734.951,484.55z"/>
		<path fill="#39B7EA" d="M800.042,707.605l-84.912,86.865l-134.706-134.14c0,0,23.197-17.647,39.735-33.277
			c16.541-15.626,41.285-54.662,41.285-54.662L800.042,707.605z"/>
		<line fill="#3BB8EA" x1="577.978" y1="574.676" x2="482.664" y2="474.229"/>
		<polygon fill="#3BB8EA" points="439.513,515.161 525.812,433.28 621.119,533.734 534.823,615.615 439.513,515.161 		"/>
</svg>
